<svg xmlns="http://www.w3.org/2000/svg" viewBox="0 0 280 48" fill="none">
  <!-- Roof mark — simple house roof with chimney -->
  <g transform="translate(2,4)">
    <path d="M20 38V22l-5 0L24 6l9 16h-5v16z" fill="#B06030"/>
    <path d="M4 28L24 8l20 20H4z" fill="#B06030"/>
    <rect x="30" y="12" width="4" height="10" rx="0.5" fill="#8B4513"/>
  </g>

  <!-- "Dachdeckerjob.ch" wordmark -->
  <g transform="translate(50,36)" fill="#1e293b">
    <!-- D -->
    <path d="M0-22h7c6.5 0 10.5 4.2 10.5 11S13.5 0 7 0H0zm4.2 3.8v14.4h2.6c4.2 0 6.5-2.8 6.5-7.2s-2.3-7.2-6.5-7.2z"/>
    <!-- a -->
    <path d="M21-10c0-5.6 3.6-9.6 8.2-9.6 2.2 0 4 .8 5.2 2.4V-16h3.8V0h-3.8v-2c-1.2 1.6-3 2.6-5.2 2.6C24.6-.4 21-4.4 21-10zm3.8 0c0 3.6 2 6.2 4.8 6.2 2.8 0 4.8-2.6 4.8-6.2s-2-6.2-4.8-6.2c-2.8 0-4.8 2.6-4.8 6.2z"/>
    <!-- c -->
    <path d="M41.5-10c0-5.6 3.8-9.6 8.6-9.6 3 0 5.4 1.4 6.8 3.6l-3 2c-.8-1.4-2.2-2.2-3.8-2.2-3 0-5 2.4-5 6.2 0 3.8 2 6.2 5 6.2 1.6 0 3-.8 3.8-2.2l3 2c-1.4 2.2-3.8 3.6-6.8 3.6-4.8 0-8.6-4-8.6-9.6z"/>
    <!-- h -->
    <path d="M59-22h4v9.6c1.4-2 3.4-3.2 5.8-3.2 3.8 0 6 2.4 6 6.4V0h-4v-8.4c0-2.6-1.4-4-3.6-4-2.4 0-4.2 1.8-4.2 4.6V0h-4z"/>
    <!-- d -->
    <path d="M78.5-10c0-5.6 3.6-9.6 8.2-9.6 2.2 0 4 .8 5.2 2.4V-22h3.8V0h-3.8v-2c-1.2 1.6-3 2.6-5.2 2.6-4.6 0-8.2-4-8.2-9.6zm3.8 0c0 3.6 2 6.2 4.8 6.2 2.8 0 4.8-2.6 4.8-6.2s-2-6.2-4.8-6.2c-2.8 0-4.8 2.6-4.8 6.2z"/>
    <!-- e -->
    <path d="M100-9.5c0-5.8 3.8-10 8.8-10 5.2 0 8.4 4 8.4 10.4v1.2h-13.2c.3 3.2 2.5 5 5.4 5 2 0 3.6-.8 4.8-2.2l2.4 2.4c-1.8 2.2-4.4 3.4-7.6 3.4-5.4 0-9-3.8-9-10.2zm4-1.5h9.6c-.3-3-2.2-5-4.6-5-2.6 0-4.5 2-5 5z"/>
    <!-- c -->
    <path d="M120.5-10c0-5.6 3.8-9.6 8.6-9.6 3 0 5.4 1.4 6.8 3.6l-3 2c-.8-1.4-2.2-2.2-3.8-2.2-3 0-5 2.4-5 6.2 0 3.8 2 6.2 5 6.2 1.6 0 3-.8 3.8-2.2l3 2c-1.4 2.2-3.8 3.6-6.8 3.6-4.8 0-8.6-4-8.6-9.6z"/>
    <!-- k -->
    <path d="M138-22h4v13.6L148.8-16h4.8l-7.6 8.6L153.8 0H149l-7-7.2V0h-4z"/>
    <!-- e -->
    <path d="M155-9.5c0-5.8 3.8-10 8.8-10 5.2 0 8.4 4 8.4 10.4v1.2h-13.2c.3 3.2 2.5 5 5.4 5 2 0 3.6-.8 4.8-2.2l2.4 2.4c-1.8 2.2-4.4 3.4-7.6 3.4-5.4 0-9-3.8-9-10.2zm4-1.5h9.6c-.3-3-2.2-5-4.6-5-2.6 0-4.5 2-5 5z"/>
    <!-- r -->
    <path d="M175-16h4v3.2c1.2-2.2 3-3.6 5.4-3.6.6 0 1 .1 1.6.2v3.8c-.6-.2-1.2-.3-1.8-.3-2.8 0-5.2 2.4-5.2 6.4V0h-4z"/>
  </g>
  <!-- "job.ch" in brown -->
  <g transform="translate(50,36)">
    <!-- j -->
    <path d="M188.5-16h4.2v17.5c0 4.2-2.2 6.5-5.8 6.5-1.2 0-2.2-.2-3-.5V4.2c.5.2 1 .3 1.6.3 1.6 0 3-.8 3-3.2zm0-6.5h4.2v4h-4.2z" fill="#B06030"/>
    <!-- o -->
    <path d="M196-9.5c0-5.8 4-10.2 9.2-10.2 5.2 0 9.2 4.4 9.2 10.2 0 5.8-4 10.2-9.2 10.2-5.2 0-9.2-4.4-9.2-10.2zm14.2 0c0-3.8-2.2-6.6-5-6.6-2.8 0-5 2.8-5 6.6s2.2 6.6 5 6.6c2.8 0 5-2.8 5-6.6z" fill="#B06030"/>
    <!-- b -->
    <path d="M216.5-22h4v9c1.4-2.2 3.6-3.6 6.2-3.6 4.8 0 8 4.2 8 10 0 5.8-3.2 10.2-8 10.2-2.6 0-4.8-1.4-6.2-3.6V0h-4zm9 18.6c-3 0-5-2.8-5-6.4 0-3.6 2-6.4 5-6.4 3 0 5 2.8 5 6.4 0 3.6-2 6.4-5 6.4z" fill="#B06030"/>
  </g>
  <!-- ".ch" in gray -->
  <g transform="translate(50,36)" fill="#94a3b8">
    <!-- . -->
    <path d="M238-4.2h4.5V0H238z"/>
    <!-- c -->
    <path d="M246-9c0-5 3.4-8.6 7.8-8.6 2.4 0 4.2 1 5.4 2.6l-2 2.2c-.8-1-1.8-1.6-3.2-1.6-2.6 0-4.6 2.2-4.6 5.4 0 3.2 2 5.4 4.6 5.4 1.4 0 2.4-.6 3.2-1.6l2 2.2c-1.2 1.6-3 2.6-5.4 2.6-4.4 0-7.8-3.6-7.8-8.6z"/>
    <!-- h -->
    <path d="M261-18.5h3.5v8.2c1.2-1.8 3-3 5.2-3 3.4 0 5.4 2.2 5.4 6V0h-3.5v-6.6c0-2.4-1.2-3.8-3.2-3.8-2.2 0-3.9 1.8-3.9 4.4V0H261z"/>
  </g>
</svg>
